# xmcd CD database file
#
# Track frame offsets:
#	150
#	25951
#	52549
#	66014
#	114389
#	139395
#	165287
#	182944
#	206911
#	229856
#	249426
#	265246
#	289347
#	317863
#
# Disc length: 4571 seconds
#
# Revision: 0
# Processed by: cddbd v1.5.2PL0 Copyright (c) Steve Scherf et al.
# Submitted via: CDex 1.51
#
DISCID=cb11d90e
DTITLE=Rodrigo y Gabriela  - Live in Japan
DYEAR=2008
DGENRE=Jazz
TTITLE0=Ok Tokyo
TTITLE1=Juan Loco
TTITLE2=Orion
TTITLE3=FOC
TTITLE4=Satori
TTITLE5=Ixtapa
TTITLE6=Viking Man
TTITLE7=Take Five
TTITLE8=One
TTITLE9=Gabriela Solo
TTITLE10=Rodrigo Solo
TTITLE11=Stairway To Heaven
TTITLE12=Tamacun
TTITLE13=Diablo Rojo
EXTD=YEAR: 2008
EXTT0=
EXTT1=
EXTT2=
EXTT3=
EXTT4=
EXTT5=
EXTT6=
EXTT7=
EXTT8=
EXTT9=
EXTT10=
EXTT11=
EXTT12=
EXTT13=
PLAYORDER=
